<svg xmlns="http://www.w3.org/2000/svg" width="61.5" height="61.5" viewBox="0 0 61.5 61.5">
    <g id="question-circle" transform="translate(-1.3 -1.3)">
        <path id="Path_566" data-name="Path 566" d="M32,1.3A30.75,30.75,0,1,0,62.8,32,30.643,30.643,0,0,0,32,1.3Zm0,58A27.25,27.25,0,1,1,59.3,32,27.314,27.314,0,0,1,32,59.3Z" fill="#00c999"></path>
        <path id="Path_567" data-name="Path 567" d="M33.7,11.9a9.714,9.714,0,0,0-11.4,9.5,8.662,8.662,0,0,0,.6,3.2,1.739,1.739,0,0,0,3.3-1.1,7.117,7.117,0,0,1-.4-2.1A6.182,6.182,0,0,1,28,16.7a5.829,5.829,0,0,1,5.1-1.3A6.065,6.065,0,0,1,38,20.3a6.13,6.13,0,0,1-3.7,6.8,6.736,6.736,0,0,0-4.1,6.4v6.4a1.8,1.8,0,0,0,3.6,0V33.5a3.283,3.283,0,0,1,1.9-3.1,9.629,9.629,0,0,0,5.8-10.7A9.811,9.811,0,0,0,33.7,11.9Z" fill="#00c999"></path>
        <path id="Path_568" data-name="Path 568" d="M32.1,46.8h-.3a1.8,1.8,0,1,0,0,3.6h.3a1.8,1.8,0,0,0,0-3.6Z" fill="#00c999"></path>
    </g>
</svg>